# xmcd
#
# Track frame offsets: 
#        150
#        22903
#        41951
#        59645
#        77826
#        98269
#        116810
#        137855
#        158318
#        175946
#        197308
#        215910
#
# Disc length: 3120 seconds
#
# Revision: 2
# Processed by: cddbd v1.5.2PL0 Copyright (c) Steve Scherf et al.
# Submitted via: ExactAudioCopy v0.99pb3
#
DISCID=9e0c2e0c
DTITLE=ΔΕΣΠΟΙΝΑ ΒΑΝΔΗ - Ballads
DYEAR=1900
DGENRE=Ballad
TTITLE0=ουτε ενα ευχαριστω
TTITLE1=εσενα περιμενω
TTITLE2=δεν εισαι εδω
TTITLE3=γελα μου
TTITLE4=λυπαμαι
TTITLE5=παρατα με
TTITLE6=χωρις εσενα
TTITLE7=ενοχα βραδια
TTITLE8=ερειπιο
TTITLE9=θελω να σε ξεχασω
TTITLE10=προσπαθω
TTITLE11=και τ ονειρο εγινε εφιαλτης
EXTD=
EXTT0=
EXTT1=
EXTT2=
EXTT3=
EXTT4=
EXTT5=
EXTT6=
EXTT7=
EXTT8=
EXTT9=
EXTT10=
EXTT11=
PLAYORDER=
